<svg style="left: 0px; top: 0px; width: 100%; height: 100%; display: block; min-width: 671px; min-height: 201px;" content="&lt;mxfile&gt;&lt;diagram id=&quot;d&quot; name=&quot;P&quot;&gt;xVZNT8MwDP01PYJGy9eVjY8TAtED59BaTVBaV4m7bvx6nDbdMspgTAykHewXx3beS9xFyaxc3BlRy3vMQUfJTTS5iuKJ+yUzg0gb0LBQLmagNdsqj5LrKHZ43K3e7hZ/0sfXwkBF+6WwhGbZ75kL3UCPPoEFYTLJaLoOCOv40nMwBIsAGhddl74DLIFctonfcurbXfoMQ/utykl6bIiRoArpq597TNjeL1aZtx9+6OPh5RUyYttgU+WwSWUrFUFai8wT0bKovjyVeiN0qG1pqeFr1hn3xO+kSWu4CTMSJeW2FVYMPgcBffl+X9h813ky9W2fsLk+r/PEi0XdEFyZLFVvMKArLz5l91C6rwT8SvjzT4S/2EP4H/OfG9EqHPHv4GOHT+5njyPyOYWqLTtTK0XtwExjwxmn38hyKI7P4h04PvuE48u/4LibO0fx0Za7nmFFRnTP1JmwoDHheQGpdyusHPMV3gSgIxcNSSywEgPbI+Jdmq3T1EMWGzNMhGBgkjAF0Mc3u6NKBrQgNd+sfVDK+xaZ8y33uxS8rIR2758XlG2YtV9nPRdWrobQfhKEdybUYH2u/9agw4Pvvo/7+BfhHQ==&lt;/diagram&gt;&lt;/mxfile&gt;" xmlns="http://www.w3.org/2000/svg" xmlns:xlink="http://www.w3.org/1999/xlink"><g><g></g><g><g style="visibility: visible;" transform="translate(0.5,0.5)"><rect x="40" y="120" width="140" height="60" fill="#c3d9ff" stroke="#6482b9" pointer-events="all"></rect></g><g style=""><g fill="#774400" font-family="Arial,Helvetica" text-anchor="middle" font-size="11px"><text x="110" y="154.5">Research Story</text></g></g><g style="visibility: visible;" transform="translate(0.5,0.5)"><rect x="260" y="120" width="160" height="70" rx="12" ry="12" fill="#c3d9ff" stroke="#6482b9" pointer-events="all"></rect></g><g style=""><g fill="#774400" font-family="Arial,Helvetica" text-anchor="middle" font-size="11px"><text x="340" y="159.5">Section Writer</text></g></g><g style="visibility: visible;" transform="translate(0.5,0.5)"><path d="M 557.5 140 C 527.5 140 520 160 544 164 C 520 172.8 547 192 566.5 184 C 580 200 625 200 640 184 C 670 184 670 168 651.25 160 C 670 144 640 128 613.75 136 C 595 124 565 124 557.5 140 Z" fill="#c3d9ff" stroke="#6482b9" stroke-miterlimit="10" pointer-events="all"></path></g><g style=""><g fill="#774400" font-family="Arial,Helvetica" text-anchor="middle" font-size="11px"><text x="595" y="164.5">draw.io MCP</text></g></g><g style="visibility: visible;" transform="translate(0.5,0.5)"><path d="M 180 151.52 L 253.63 153.12" fill="none" stroke="white" stroke-miterlimit="10" pointer-events="stroke" visibility="hidden" stroke-width="9"></path><path d="M 180 151.52 L 253.63 153.12" fill="none" stroke="#6482b9" stroke-miterlimit="10" pointer-events="stroke"></path><path d="M 258.88 153.24 L 251.81 156.58 L 253.63 153.12 L 251.96 149.59 Z" fill="#6482b9" stroke="#6482b9" stroke-miterlimit="10" pointer-events="all"></path></g><g style=""><g fill="#446299" font-family="Arial,Helvetica" text-anchor="middle" font-size="11px"><text x="219.99" y="156.89">contract context</text></g></g><g style="visibility: visible;" transform="translate(0.5,0.5)"><path d="M 420 156.57 L 513.63 158.4" fill="none" stroke="white" stroke-miterlimit="10" pointer-events="stroke" visibility="hidden" stroke-width="9"></path><path d="M 420 156.57 L 513.63 158.4" fill="none" stroke="#6482b9" stroke-miterlimit="10" pointer-events="stroke"></path><path d="M 518.88 158.51 L 511.81 161.87 L 513.63 158.4 L 511.95 154.87 Z" fill="#6482b9" stroke="#6482b9" stroke-miterlimit="10" pointer-events="all"></path></g><g style=""><g fill="#446299" font-family="Arial,Helvetica" text-anchor="middle" font-size="11px"><text x="469.99" y="162.05">materialize visual</text></g></g></g><g></g><g></g></g></svg>